<svg width="191" height="41" viewBox="0 0 191 41" fill="none" xmlns="http://www.w3.org/2000/svg">
<path d="M2.25 15.5L21 5.5L39.75 15.5L21 25.5L2.25 15.5Z" stroke="#FF6636" stroke-width="3" stroke-linecap="round" stroke-linejoin="round"/>
<path d="M30.375 38V20.5L21 15.5" stroke="#FF6636" stroke-width="3" stroke-linecap="round" stroke-linejoin="round"/>
<path d="M35.375 17.8333V26.3521C35.3755 26.6218 35.2884 26.8843 35.1266 27.1001C34.074 28.5008 29.6333 33.6249 21 33.6249C12.3667 33.6249 7.92597 28.5008 6.87336 27.1001C6.71165 26.8843 6.62449 26.6218 6.625 26.3521V17.8333" stroke="#FF6636" stroke-width="3" stroke-linecap="round" stroke-linejoin="round"/>
<path d="M51.2955 32.5V9.22727H60.0227C61.8106 9.22727 63.3106 9.56061 64.5227 10.2273C65.7424 10.8939 66.6629 11.8106 67.2841 12.9773C67.9129 14.1364 68.2273 15.4545 68.2273 16.9318C68.2273 18.4242 67.9129 19.75 67.2841 20.9091C66.6553 22.0682 65.7273 22.9811 64.5 23.6477C63.2727 24.3068 61.7614 24.6364 59.9659 24.6364H54.1818V21.1705H59.3977C60.4432 21.1705 61.2992 20.9886 61.9659 20.625C62.6326 20.2614 63.125 19.7614 63.4432 19.125C63.7689 18.4886 63.9318 17.7576 63.9318 16.9318C63.9318 16.1061 63.7689 15.3788 63.4432 14.75C63.125 14.1212 62.6288 13.6326 61.9545 13.2841C61.2879 12.928 60.428 12.75 59.375 12.75H55.5114V32.5H51.2955ZM75.4576 32.8523C74.3516 32.8523 73.3553 32.6553 72.469 32.2614C71.5902 31.8598 70.8932 31.2689 70.3781 30.4886C69.8705 29.7083 69.6167 28.7462 69.6167 27.6023C69.6167 26.6174 69.7985 25.803 70.1622 25.1591C70.5258 24.5152 71.022 24 71.6508 23.6136C72.2796 23.2273 72.9879 22.9356 73.7758 22.7386C74.5713 22.5341 75.3932 22.3864 76.2417 22.2955C77.2644 22.1894 78.094 22.0947 78.7303 22.0114C79.3667 21.9205 79.8288 21.7841 80.1167 21.6023C80.4122 21.4129 80.5599 21.1212 80.5599 20.7273V20.6591C80.5599 19.803 80.3061 19.1402 79.7985 18.6705C79.2909 18.2008 78.5599 17.9659 77.6053 17.9659C76.5978 17.9659 75.7985 18.1856 75.2076 18.625C74.6243 19.0644 74.2303 19.5833 74.0258 20.1818L70.1849 19.6364C70.4879 18.5758 70.9879 17.6894 71.6849 16.9773C72.3819 16.2576 73.2341 15.7197 74.2417 15.3636C75.2493 15 76.3629 14.8182 77.5826 14.8182C78.4235 14.8182 79.2606 14.9167 80.094 15.1136C80.9273 15.3106 81.6887 15.6364 82.3781 16.0909C83.0675 16.5379 83.6205 17.1477 84.0372 17.9205C84.4614 18.6932 84.6735 19.6591 84.6735 20.8182V32.5H80.719V30.1023H80.5826C80.3326 30.5871 79.9803 31.0417 79.5258 31.4659C79.0788 31.8826 78.5144 32.2197 77.8326 32.4773C77.1584 32.7273 76.3667 32.8523 75.4576 32.8523ZM76.5258 29.8295C77.3516 29.8295 78.0675 29.6667 78.6735 29.3409C79.2796 29.0076 79.7455 28.5682 80.0713 28.0227C80.4046 27.4773 80.5713 26.8826 80.5713 26.2386V24.1818C80.4425 24.2879 80.2228 24.3864 79.9122 24.4773C79.6091 24.5682 79.2682 24.6477 78.8894 24.7159C78.5106 24.7841 78.1356 24.8447 77.7644 24.8977C77.3932 24.9508 77.0713 24.9962 76.7985 25.0341C76.1849 25.1174 75.6356 25.2538 75.1508 25.4432C74.6659 25.6326 74.2834 25.8977 74.0031 26.2386C73.7228 26.572 73.5826 27.0038 73.5826 27.5341C73.5826 28.2917 73.8591 28.8636 74.4122 29.25C74.9652 29.6364 75.6697 29.8295 76.5258 29.8295ZM96.5658 15.0455V18.2273H86.5317V15.0455H96.5658ZM89.009 10.8636H93.1226V27.25C93.1226 27.803 93.2059 28.2273 93.3726 28.5227C93.5469 28.8106 93.7741 29.0076 94.0544 29.1136C94.3347 29.2197 94.6453 29.2727 94.9863 29.2727C95.2438 29.2727 95.4787 29.2538 95.6908 29.2159C95.9105 29.178 96.0772 29.1439 96.1908 29.1136L96.884 32.3295C96.6643 32.4053 96.3499 32.4886 95.9408 32.5795C95.5393 32.6705 95.0469 32.7235 94.4635 32.7386C93.4332 32.7689 92.5052 32.6136 91.6794 32.2727C90.8537 31.9242 90.1984 31.3864 89.7135 30.6591C89.2363 29.9318 89.0014 29.0227 89.009 27.9318V10.8636ZM103.535 22.2727V32.5H99.4211V9.22727H103.444V18.0114H103.648C104.057 17.0265 104.69 16.25 105.546 15.6818C106.41 15.1061 107.508 14.8182 108.842 14.8182C110.054 14.8182 111.111 15.072 112.012 15.5795C112.914 16.0871 113.611 16.8295 114.103 17.8068C114.603 18.7841 114.853 19.9773 114.853 21.3864V32.5H110.739V22.0227C110.739 20.8485 110.436 19.9356 109.83 19.2841C109.232 18.625 108.391 18.2955 107.307 18.2955C106.58 18.2955 105.929 18.4545 105.353 18.7727C104.785 19.0833 104.338 19.5341 104.012 20.125C103.694 20.7159 103.535 21.4318 103.535 22.2727ZM118.268 32.5V9.22727H122.484V28.9659H132.734V32.5H118.268ZM135.251 32.5V15.0455H139.365V32.5H135.251ZM137.319 12.5682C136.668 12.5682 136.107 12.3523 135.637 11.9205C135.168 11.4811 134.933 10.9545 134.933 10.3409C134.933 9.7197 135.168 9.19318 135.637 8.76136C136.107 8.32197 136.668 8.10227 137.319 8.10227C137.978 8.10227 138.539 8.32197 139.001 8.76136C139.471 9.19318 139.706 9.7197 139.706 10.3409C139.706 10.9545 139.471 11.4811 139.001 11.9205C138.539 12.3523 137.978 12.5682 137.319 12.5682ZM150.226 39.4091C148.749 39.4091 147.48 39.2083 146.419 38.8068C145.358 38.4129 144.506 37.8826 143.862 37.2159C143.218 36.5492 142.771 35.8106 142.521 35L146.226 34.1023C146.392 34.4432 146.635 34.7803 146.953 35.1136C147.271 35.4545 147.699 35.7348 148.237 35.9545C148.783 36.1818 149.468 36.2955 150.294 36.2955C151.461 36.2955 152.427 36.0114 153.192 35.4432C153.957 34.8826 154.339 33.9583 154.339 32.6705V29.3636H154.135C153.923 29.7879 153.612 30.2235 153.203 30.6705C152.802 31.1174 152.267 31.4924 151.601 31.7955C150.942 32.0985 150.112 32.25 149.112 32.25C147.771 32.25 146.555 31.9356 145.464 31.3068C144.381 30.6705 143.517 29.7235 142.874 28.4659C142.237 27.2008 141.919 25.6174 141.919 23.7159C141.919 21.7992 142.237 20.1818 142.874 18.8636C143.517 17.5379 144.385 16.5341 145.476 15.8523C146.567 15.1629 147.783 14.8182 149.124 14.8182C150.146 14.8182 150.987 14.9924 151.646 15.3409C152.313 15.6818 152.843 16.0947 153.237 16.5795C153.631 17.0568 153.93 17.5076 154.135 17.9318H154.362V15.0455H158.419V32.7841C158.419 34.2765 158.063 35.5114 157.351 36.4886C156.639 37.4659 155.665 38.197 154.43 38.6818C153.195 39.1667 151.794 39.4091 150.226 39.4091ZM150.26 29.0227C151.131 29.0227 151.874 28.8106 152.487 28.3864C153.101 27.9621 153.567 27.3523 153.885 26.5568C154.203 25.7614 154.362 24.8068 154.362 23.6932C154.362 22.5947 154.203 21.6326 153.885 20.8068C153.574 19.9811 153.112 19.3409 152.499 18.8864C151.892 18.4242 151.146 18.1932 150.26 18.1932C149.343 18.1932 148.578 18.4318 147.964 18.9091C147.351 19.3864 146.889 20.0417 146.578 20.875C146.267 21.7008 146.112 22.6402 146.112 23.6932C146.112 24.7614 146.267 25.697 146.578 26.5C146.896 27.2955 147.362 27.9167 147.976 28.3636C148.597 28.803 149.358 29.0227 150.26 29.0227ZM165.789 22.2727V32.5H161.675V9.22727H165.698V18.0114H165.902C166.311 17.0265 166.944 16.25 167.8 15.6818C168.664 15.1061 169.762 14.8182 171.095 14.8182C172.307 14.8182 173.364 15.072 174.266 15.5795C175.167 16.0871 175.864 16.8295 176.357 17.8068C176.857 18.7841 177.107 19.9773 177.107 21.3864V32.5H172.993V22.0227C172.993 20.8485 172.69 19.9356 172.084 19.2841C171.485 18.625 170.645 18.2955 169.561 18.2955C168.834 18.2955 168.182 18.4545 167.607 18.7727C167.039 19.0833 166.592 19.5341 166.266 20.125C165.948 20.7159 165.789 21.4318 165.789 22.2727ZM189.056 15.0455V18.2273H179.022V15.0455H189.056ZM181.499 10.8636H185.613V27.25C185.613 27.803 185.696 28.2273 185.863 28.5227C186.037 28.8106 186.264 29.0076 186.544 29.1136C186.825 29.2197 187.135 29.2727 187.476 29.2727C187.734 29.2727 187.969 29.2538 188.181 29.2159C188.4 29.178 188.567 29.1439 188.681 29.1136L189.374 32.3295C189.154 32.4053 188.84 32.4886 188.431 32.5795C188.029 32.6705 187.537 32.7235 186.954 32.7386C185.923 32.7689 184.995 32.6136 184.169 32.2727C183.344 31.9242 182.688 31.3864 182.204 30.6591C181.726 29.9318 181.491 29.0227 181.499 27.9318V10.8636Z" fill="#1D2026"/>
</svg>
